<?xml version="1.0" encoding="utf-8"?>
<!-- Generator: Adobe Illustrator 23.0.5, SVG Export Plug-In . SVG Version: 6.00 Build 0)  -->
<svg version="1.1" id="Layer_1" xmlns="http://www.w3.org/2000/svg" xmlns:xlink="http://www.w3.org/1999/xlink" x="0px" y="0px"
	 viewBox="0 0 167 152" style="enable-background:new 0 0 167 152;" xml:space="preserve">
<style type="text/css">
	.st0{fill:#FFFFFF;}
	.st1{fill:#339900;}
	.st2{fill:#EDE603;}
	.st3{fill:#FAFBFC;}
	.st4{fill:#FCC322;}
	.st5{fill:#FCFCFC;}
	.st6{fill:#347F04;}
	.st7{fill:#B4DD0A;}
	.st8{fill:#7F5304;}
</style>
<g>
	<path class="st0" d="M151.6,111c-1.5,0-3.1,0-4.6,0c0,2.3,0,4.5,0,6.8c-0.1,1.9-1.1,3.8-2.7,4.9c-1.3,0.8-2.8,1.3-4.3,1.9
		c-15.3,6.1-31.6,9.8-48,10.8c0,0-2.7,0.4-9.7,0.4c-6.4,0-9.7-0.4-9.7-0.4c-17.5-1.1-34.8-5.2-50.9-12c-2.3-0.9-4-3.1-4.1-5.6
		c0-2.3,0-4.5,0-6.8c-1.5,0-3.1,0-4.6,0c0,2.4,0,4.8,0,7.2c0.2,4.1,3,8,6.8,9.5c16.8,7.1,34.9,11.3,53.1,12.5c0,0,3.9,0.4,9.5,0.4
		c5.5,0,9.5-0.4,9.5-0.4c18.1-1.1,36.1-5.3,52.8-12.4c2.7-1.1,5-3.2,6.2-5.8C152.2,118.5,151.4,114.6,151.6,111"/>
	<path class="st0" d="M151.6,56.1c-0.2-4.1-3-8-6.8-9.5c-15.1-6.4-31.2-10.4-47.5-12l-0.1,0.1l-0.1,0.1c-0.3,0.3-0.5,0.5-0.7,0.8
		c0.2,0.2,1.3,1.8,2.7,3.9c15,1.7,29.7,5.5,43.6,11.4c2.3,0.9,4,3.1,4.1,5.6c0,2.3,0,4.5,0,6.8c1.5,0,3.1,0,4.6,0
		C151.6,60.9,151.7,58.5,151.6,56.1"/>
	<path class="st0" d="M64.6,34.9c-15.3,1.7-30.4,5.6-44.7,11.6c-2.7,1.1-5,3.2-6.2,5.8c-1.6,3.4-0.7,7.3-0.9,10.9c1.5,0,3.1,0,4.6,0
		c0-2.3,0-4.5,0-6.8c0.1-1.9,1.1-3.8,2.7-4.9c1.3-0.8,2.8-1.3,4.3-1.9c11.1-4.4,22.7-7.6,34.5-9.4C61.2,38.2,63.5,36,64.6,34.9"/>
	<path class="st1" d="M80.6,11.7c1.8,4.1,3.2,8.4,4.5,12.7c0.1-0.2,0.3-0.4,0.2-0.6c-0.2-0.9-0.6-1.8-0.8-2.8
		c0.1-0.3,0.3-0.5,0.4-0.7c1-1.6,1.4-3.5,2.7-5c-0.3,1.6-0.1,3.2-0.2,4.8c-0.1,0.3-0.3,0.5-0.4,0.8c-1.1,2.2-2.1,4.5-2.9,6.9
		c-0.2,0.5-0.2,0.9-0.3,1.4c0.3-0.1,0.4-0.5,0.5-0.8c1.1-4,3-7.7,5.3-11c0.9-1.2,1.8-2.4,2.8-3.4c-1.1,3.3-2,6.7-2.5,10.2
		c-0.2,0.3-0.5,0.5-0.7,0.8c-1.8,1.7-3.3,3.7-4.3,6c-0.4,0.8-0.6,1.6-0.8,2.4c0.3-0.1,0.4-0.5,0.5-0.8c1-2.4,2.3-4.7,4.2-6.5
		c2.2-2.3,5-4,7.9-5.3c-2.2,2.2-4.1,5-4.9,8.1c-1.6,0.8-3.2,1.8-4.5,3c-0.5,0.5-1,1-1.5,1.5c-1.1,1.4-2.1,3.1-2.3,4.9
		c0,0.1,0.1,0.3,0.1,0.4c0.4-0.8,0.5-1.7,0.9-2.6c1-2.2,2.8-3.9,4.8-5.3c2.4-1.6,5.2-2.7,8.1-3.3c-1.7,1.1-3.2,2.5-4.7,3.9
		c-1.8,1.7-3.1,3.9-3.6,6.3c-0.9,0.4-1.9,0.6-2.9,0.9c-0.8,0.2-1.5,0.7-2.2,1c-0.2-0.1-0.4-0.3-0.7-0.2c-0.5,0.2-0.8-0.3-1.2-0.5
		c-0.8-0.6-1.7-0.8-2.5-1.3c-0.6-1.3-1.3-2.5-2.2-3.5c-0.9-1.2-2.2-2.2-3.3-3.2c-1.3-1.2-2.8-2.1-4.4-2.7c1.5-0.1,3.1,0,4.6,0.4
		c3.8,0.9,6.9,3.3,9.9,5.7c-0.7-0.9-1.7-1.6-2.5-2.3c-1.6-1.3-3.3-2.3-5.1-3.2c-0.5-1.6-1.2-3.2-2-4.7c-0.8-1.5-1.8-2.9-2.9-4.1
		c2,0.9,3.8,2.3,5.5,3.7c2.6,2.4,5,5.1,6.9,8c0.1-0.3,0.3-0.5,0.4-0.8c-1.2-1.6-2.4-3.2-3.9-4.6c0.2-0.9,0.1-1.8,0.2-2.7
		c0.3-2.5-0.1-4.9-0.1-7.4c0-0.9-0.2-1.8-0.1-2.7C80.7,13,80.5,12.4,80.6,11.7"/>
	<path class="st1" d="M77.1,19.9c1.2,1,2.5,1.9,3.3,3.2c0,0.9-0.1,1.9-0.2,2.8c-0.5-0.5-1-0.9-1.4-1.4
		C78.5,22.8,77.9,21.3,77.1,19.9"/>
	<path class="st2" d="M76.8,39.5c0.7-0.8,1.7-1.4,2.7-1.6c1.1,0.4,2.1,1.1,2.9,1.9c-1.3,0.7-2.3,1.7-3.2,2.9
		c-0.1-0.1-0.3-0.2-0.3-0.2c-0.2,0.2-0.5,0.3-0.7,0.5C77.6,41.9,77.3,40.7,76.8,39.5"/>
	<path class="st2" d="M88.7,38.6c0.5-0.1,1-0.3,1.5-0.5c0.5,0.4,0.8,1,1,1.6c-0.9,1.3-2.5,1.8-3.2,3.2c-0.1,0.2-0.1,0.7-0.5,0.6
		c-1.1-1.2-1.9-2.5-3.1-3.5C85.8,39.2,87.3,38.9,88.7,38.6"/>
	<path class="st2" d="M72.2,45c0.6-2.1,2.1-3.9,3.9-5c0.8,1,1.2,2.1,1.8,3.2c-1.4,1.1-2.8,2.3-3.5,3.9c-0.1-0.1-0.2-0.2-0.2-0.3
		c-0.2,0-0.5,0-0.7,0.1C73,46.2,72.6,45.6,72.2,45"/>
	<path class="st2" d="M79.5,43c1-1.4,2.3-2.6,4-3c0.8,0.7,1.6,1.3,2.2,2.1c0.5,0.6,1,1.3,1.5,1.8c-1.2,0.9-2.2,1.9-3.1,3.1
		c-0.2,0.3-0.3,0.7-0.5,1c-0.2-0.1-0.3-0.3-0.5-0.4c-0.1,0.1-0.3,0.2-0.4,0.3c-1-1.1-1.6-2.6-2.5-3.8C80,43.7,79.8,43.3,79.5,43"/>
	<path class="st2" d="M89.6,41.8c0.8-0.6,1.5-1.2,2.3-1.8c0.9,1.1,1.8,2.2,2.4,3.5c0.3,0.6,0.5,1.2,0.8,1.8
		c-0.5,0.7-0.9,1.5-1.1,2.3c-0.1-0.1-0.3-0.2-0.4-0.4c-0.3-0.1-0.5,0.1-0.7,0.2c-0.6-0.8-1.6-1.2-2.2-1.9c-0.7-0.8-1.6-1.4-2.1-2.3
		C88.8,42.6,89.1,42.1,89.6,41.8"/>
	<path class="st2" d="M77,44.5c0.7-0.5,1.2-1.1,2-1.5c0.6,0.7,1.2,1.4,1.6,2.3c0.5,1,1.1,1.9,1.8,2.8c-1.1,0.9-2.2,1.9-3.1,3.1
		c-0.3,0.4-0.9,0.4-1.3,0.6c-1-1.4-2.4-2.5-3.2-4C75.3,46.6,76,45.4,77,44.5"/>
	<path class="st2" d="M86.7,44.8c0.5-0.4,1-0.7,1.5-1.1c0.7,0.5,1.2,1.2,1.8,1.8c0.7,0.8,1.8,1.2,2.4,2.1c-0.3,0.3-0.6,0.6-1,0.9
		c-1,1-1.9,2.2-2.6,3.5c-0.6,0-0.9-0.6-1.3-0.9c-1.1-0.9-2.4-1.6-3.5-2.6C84.5,46.9,85.5,45.7,86.7,44.8"/>
	<path class="st2" d="M70.6,46.9c0.2-0.7,0.4-1.4,0.8-2c0.5,0.8,1,1.6,1.5,2.4c-0.7,0.5-1.4,1-2,1.6c-0.4,0.4-0.7,0.9-1.2,1.3
		C70,49,70.3,47.9,70.6,46.9"/>
	<path class="st2" d="M94.1,47.9c0.4-0.9,0.9-1.7,1.5-2.4c0.9,1.7,1.2,3.6,1.6,5.5C96.1,50.1,94.9,49.2,94.1,47.9"/>
	<path class="st2" d="M69.6,50.9c1.1-1.5,2.6-2.8,4.3-3.6c0.6,1,1.3,2,2.1,2.8c0.5,0.7,1.2,1.2,1.6,1.9c-0.4,0.3-0.8,0.6-1.2,0.9
		c-0.9,0.9-2.2,1.1-3,2.2c-0.3-0.2-0.6-0.2-0.9,0C71.4,54,70.2,52.6,69.6,50.9"/>
	<path class="st2" d="M89.3,52.1c0.9-1.8,2.2-3.5,4-4.6c0.6,0.9,1.2,1.9,2.1,2.6c0.7,0.6,1.4,1.1,2.2,1.6c-1,1-2,2.2-2.6,3.5
		c-0.1,0.3-0.4,0.2-0.7,0.3C92.5,54.4,90.8,53.4,89.3,52.1"/>
	<path class="st2" d="M79.3,51.8c1-1.5,2.3-2.7,3.8-3.7c1.5,1.6,3.6,2.3,5,4c-1,0.9-2.2,1.3-3.2,2.2c-0.3,0.4-0.6,0.8-0.8,1.2
		c-0.2,0.1-0.4,0.2-0.7,0.3c-1.1-1.2-2.5-2.1-3.6-3.2C79.7,52.4,79.4,52.1,79.3,51.8"/>
	<path d="M69.1,51.4c0.4,0.5,0.6,1,1,1.5c0.6,0.9,1.3,1.7,2.1,2.4c-1.1,0.6-2,1.4-2.8,2.4c-0.2-1-0.3-2.1-0.4-3.1
		C68.8,53.6,68.9,52.5,69.1,51.4"/>
	<path class="st2" d="M75.7,54.2c1.1-0.6,1.9-1.6,3-2.1c0.7,1.1,1.8,1.8,2.8,2.6c0.6,0.5,1.2,0.9,1.8,1.4c-1.7,1.2-3.3,2.7-4.1,4.7
		c-0.3-0.1-0.6-0.1-0.9,0c-1.4-1.8-3-3.4-4.5-5.2C74.3,54.9,75,54.5,75.7,54.2"/>
	<path d="M95.3,55.6C96,54.3,97,53,98.2,52c0.5,1.7,0.6,3.4,0.1,5.1C97.4,56.4,96.2,56.2,95.3,55.6"/>
	<path class="st2" d="M85.5,54.5c1-0.8,2.3-1.3,3.2-2.3c1.7,1.2,3.5,2.5,5.4,3.4C93,57.3,91,58.2,90,59.9c-0.3-0.2-0.7-0.1-1,0
		c-1.2-0.8-2.4-1.8-3.3-2.9c-0.3-0.5-0.7-0.9-1.2-1.2C84.7,55.4,85,54.9,85.5,54.5"/>
	<path d="M69.8,57.9c0.9-1,1.9-1.9,3.2-2.3c0.7,0.7,1.2,1.4,1.9,2.1c0.4,0.4,0.8,0.9,1.2,1.3c0.7,0.6,1.2,1.4,1.8,2
		c-1.4,1.1-3,2.1-3.8,3.8C73.9,65,73.4,64.9,73,65c-1.5-1.5-2.7-3.2-3.6-5.2C69.2,59.2,69.5,58.4,69.8,57.9"/>
	<path d="M94.4,55.9c0.3-0.3,0.6,0.1,0.9,0.2c1.1,0.7,2.7,0.8,3.4,2.1c-0.8,1.6-1.8,3.2-3.1,4.5c-0.3-0.2-0.6,0-0.8,0.2
		c-1.5-0.8-3-1.7-4.4-2.7C91.6,58.6,93.3,57.5,94.4,55.9"/>
	<path class="st2" d="M79.5,61.1c0.9-2.1,2.8-3.6,4.5-5c0.8,0.4,1.3,1.3,2,1.9c0.8,0.9,1.8,1.7,2.8,2.3c-1.1,1.2-2,2.6-3.1,3.8
		c-0.2,0.3-0.4,0.6-0.7,0.8c-0.3,0-0.7,0-1,0.1C82.1,64.3,80.5,62.8,79.5,61.1"/>
	<path d="M98.4,59.8c0.2-0.3,0.3-0.6,0.6-0.8c0.1,0.9-0.1,1.9-0.2,2.8c-0.1,0.9-0.3,1.7-0.6,2.5c-0.7-0.5-1.3-1-2.1-1.3
		C96.9,62,97.7,60.9,98.4,59.8"/>
	<path class="st2" d="M88,61.7c0.4-0.6,0.9-1.1,1.3-1.6c0.3,0.1,0.6,0.2,0.8,0.4c1.4,1,2.9,2,4.4,2.8c-0.9,1.2-1.7,2.4-2.8,3.4
		c-0.5,0.5-1,0.9-1.5,1.3c-0.3-0.2-0.6-0.5-1-0.5c-0.1,0.2-0.2,0.3-0.2,0.5c-0.6-0.6-1.4-0.9-2.1-1.4c-0.6-0.4-1.2-0.9-1.8-1.3
		C86.2,64.3,87,62.9,88,61.7"/>
	<path d="M69.2,60.6c0.7,1.2,1.6,2.4,2.5,3.5c0.3,0.4,0.7,0.7,1,1.1c-0.8,0.3-1.5,0.7-2.2,1.2C69.8,64.5,69.2,62.6,69.2,60.6"/>
	<path d="M75.3,63.9c1.1-1.1,2.2-2.2,3.5-2.9c0.4,0.4,0.7,1,1.1,1.5c1,1.2,2.2,2.2,3.5,3c-1.4,1-3.3,1.6-4,3.3
		c-0.2-0.2-0.4-0.3-0.5-0.5c-0.2,0.3-0.4,0.6-0.5,0.9c-0.6-0.6-1.4-0.9-2-1.4c-0.8-0.7-1.5-1.5-2.1-2.4
		C74.6,64.9,74.9,64.4,75.3,63.9"/>
	<path class="st2" d="M95.2,63.1c1.2,0.3,2.3,1,3.2,1.8c-0.8,1.3-1.3,2.8-2.4,3.9c-0.3,0.5-0.8,0.9-1.2,1.3
		c-1.2-0.9-2.7-1.4-4.1-1.8c0.5-0.5,1-0.8,1.5-1.3C93.4,65.8,94.4,64.5,95.2,63.1"/>
	<path d="M70.2,67.2c1-0.9,2.1-1.5,3.4-1.9c0.8,1.5,2,2.7,3.5,3.5c0.3,0.2,0.7,0.4,1,0.7c-0.5,0.5-1.2,0.9-1.9,1.3
		c-0.5,0.3-0.8,0.7-1.3,1c-0.9-0.5-1.7-1.2-2.5-1.9C71.6,69.1,70.9,68.1,70.2,67.2"/>
	<path class="st2" d="M82.7,66.5c0.6-0.3,1.1-0.8,1.7-1.1c1.3,1.3,2.9,2.1,4.5,3.1c-0.5,0.5-1,1-1.5,1.5c-1,0.8-2,1.6-2.9,2.6
		c-1.2-1.7-3.3-2.3-4.9-3.5C80.3,67.8,81.6,67.1,82.7,66.5"/>
	<path class="st2" d="M89.6,68.2c1.1,0.6,2.3,0.8,3.4,1.4c0.8,0.4,1.5,0.8,2.2,1.3c-1.1,0.8-2.4,1.4-3.7,1.9c-1.5,0.6-3.2,1-4.8,1.4
		c-0.9,0.1-1.9,0.3-2.8,0c0.5-1.7,2-2.8,3.3-3.8C88.1,69.8,88.9,69,89.6,68.2"/>
	<path class="st2" d="M75.2,72.3c1.1-1.3,3.1-1.7,3.9-3.3c0.8,0.7,1.8,1.3,2.7,1.8c0.9,0.5,1.8,1.2,2.5,1.9
		c-0.3,0.4-0.4,0.8-0.6,1.2c-0.7,0.1-1.4,0.2-2.1,0.1c-2.1-0.1-4.2-0.9-6.2-1.4C75.3,72.5,75.2,72.4,75.2,72.3"/>
	<path class="st3" d="M100.9,44.5c-0.2,0.2-0.1,0.5-0.1,0.7c0,0.6-0.2,1.2-0.2,1.8c-0.4,0-0.8,0-1.2,0c-0.9,0-1.7,0.3-2.5,0.6
		c-2.4,1-4.2,3.1-5.1,5.5c-0.8,1.9-1,4-1,6c0.1,1.4,0.2,2.8,0.5,4.1c0.7,3.1,1.9,6.1,4.1,8.5c0.9,1,2,1.9,3.3,2.5
		c0.1,0,0.2,0.1,0.2,0.1c1,0.5,2.1,0.8,3.2,0.8c1,0,2-0.2,2.8-0.9c0.6-0.4,1-1,1.3-1.6c0.1-0.3,0.3-0.6,0.4-0.8c0.5-1.3,1-2.7,1.6-4
		c0.6-1.4,1.2-2.8,1.8-4.3c0.2-0.5,0.5-1,0.6-1.6c0.5-1.4,0.9-2.8,1-4.3c0.4,1.1,0.7,2.3,1.2,3.3c0.3,0.6,0.3,1.2,0.8,1.7
		c0.1-0.3,0.1-0.5,0.1-0.8c0.2-1.6,0.5-3.2,0.2-4.8c-0.2-1.4-0.5-2.9-0.9-4.3c-0.4-1.4-1-2.7-1.9-3.8c-1.2-1.5-3-2.6-4.9-2.9
		c-1.2-0.2-2.5-0.1-3.4-1c0-0.1,0-0.3,0-0.4C102.2,44.1,101.4,44.1,100.9,44.5"/>
	<path class="st1" d="M101.1,44.7c0.4-0.2,0.8-0.2,1.2,0c0,0.1-0.1,0.2-0.1,0.4c0.1,0,0.2,0.1,0.3,0.1c0,0.7-0.1,1.5,0,2.2
		c-0.3,0-0.7,0-1,0c-0.2,0-0.4-0.1-0.5-0.3c0-0.3,0-0.6,0-0.9c0.3,0.3,0.8,0.3,1.2,0c-0.3,0-0.5,0-0.8-0.1c-0.2-0.1-0.3-0.4-0.3-0.6
		c0.3,0.1,0.8,0.1,1-0.3c-0.2,0-0.3,0.1-0.5,0.1C101.3,45.1,101.1,44.9,101.1,44.7"/>
	<path class="st1" d="M102.7,45.5c0.5,0.1,1,0.4,1.5,0.5c0.4,0.3,0.9,0.4,1.3,0.7c0.3,0.6,0.5,1.3,0.7,2c-0.1-0.1-0.2-0.3-0.3-0.5
		c-0.3-0.8-0.8-1.4-1.4-1.9c-0.5-0.3-1.1-0.6-1.7-0.5C102.7,45.7,102.7,45.5,102.7,45.5"/>
	<path class="st1" d="M105,46.1c1.1,0.1,2.1,0.3,3.1,0.8c2.1,1,3.7,3,4.4,5.2c0.4,1,0.6,2.1,0.8,3.2c0,0,0,0.1,0,0.2
		c-0.4-0.6-0.8-1.2-1.2-1.7c-0.1-0.4-0.3-0.7-0.5-1c0.4,0.3,0.8,0.7,1.2,1c-0.6-0.7-1.4-1.2-1.8-2c-0.2-0.4-0.5-0.7-0.7-1
		c0.6,0.3,1.2,0.7,1.8,0.9c-0.1-0.1-0.2-0.2-0.3-0.2c-0.6-0.4-1.3-0.8-1.9-1.2c-0.4-0.3-0.7-0.7-1-1.1c0.6,0.2,1.3,0.4,1.9,0.5
		c-0.7-0.3-1.5-0.5-2.2-0.8c-0.4-0.2-0.7-0.6-1-0.9c0.6,0,1.1,0.1,1.7,0c-0.7-0.3-1.4-0.3-2.1-0.3c-0.3-0.2-0.6-0.4-0.8-0.6
		c0.2,0,0.5,0,0.7,0c-0.4-0.3-0.9-0.2-1.4-0.4C105.6,46.4,105.3,46.2,105,46.1"/>
	<path class="st1" d="M105.9,46.9c0.5,0.3,0.9,0.6,1.3,0.9c0,0.8,0,1.6,0,2.4c-0.2-0.1,0,0.2-0.1,0.4c-0.3-0.6-0.6-1.2-0.8-1.8
		c0-0.1,0.1-0.2,0.1-0.3C106.1,48,106,47.5,105.9,46.9"/>
	<path class="st4" d="M102.8,47.1c0.4,0,0.8,0,1.2,0c0.4,0.1,0.8,0.3,1.1,0.4c-0.4-0.1-0.8-0.1-1.2-0.2c0.1,0.1,0.2,0.2,0.3,0.3
		c-0.5-0.1-1-0.2-1.5-0.2C102.8,47.3,102.8,47.1,102.8,47.1"/>
	<path class="st4" d="M94.4,49.6c1.5-1.5,3.5-2.4,5.6-2.4c0.2,0,0.4,0,0.5,0.1c-0.6,0-1.2,0.1-1.8,0.3c0.5,0.1,1-0.1,1.5,0
		c-0.2,0.1-0.4,0.1-0.6,0.2c-0.9,0.2-1.7,0.5-2.5,0.9c-2.6,1.4-4.6,3.9-5.2,6.8c-0.3,1.3-0.4,2.7-0.1,4c0.1-0.6,0-1.1,0-1.7
		c0.2-2.2,0.9-4.4,2.3-6.2c0.9-1.1,1.9-2.1,3.2-2.7c1.3-0.7,2.7-1,4.2-1.2c1.1-0.1,2.3-0.1,3.4,0.3c0.3,0.1,0.6,0.3,0.9,0.5
		c0.2,0.5,0.4,1,0.6,1.4c0.6,1.3,1.5,2.4,2.4,3.5c0.3,0.9,0.3,1.9,0.4,2.8c0.2-0.7,0.2-1.6,0.1-2.3c0.2,0.2,0.3,0.4,0.5,0.6
		c0.1,0.9,0.2,1.8,0.1,2.7c-0.1,0.5-0.1,1-0.1,1.5c0.4-1.2,0.5-2.5,0.4-3.8c0.1,0.1,0.3,0.3,0.4,0.4c0.3,1.8,0,3.6-0.5,5.3
		c0.7-1.5,0.9-3.2,0.8-4.9c0.1,0.2,0.3,0.4,0.4,0.6c0.2,2-0.3,3.9-1,5.8c-0.3,0.6-0.5,1.1-0.7,1.7c-0.6,1.5-1.3,2.9-1.9,4.4
		c-0.6,1.4-0.9,2.9-1.7,4.2c-0.3,0.6-0.7,1.1-1.3,1.5c-1,0.7-2.4,0.8-3.6,0.7c-1.8-0.3-3.4-1.2-4.7-2.4c-2.5-2.3-3.9-5.6-4.7-8.8
		c-0.4-1.4-0.6-2.9-0.6-4.3C91,57,91.3,55,92,53.2C92.6,51.9,93.4,50.6,94.4,49.6 M94.9,51.6c-1.4,1.5-2.2,3.6-2.3,5.6
		c0,0.3,0,0.5,0.1,0.8c0.1-2.3,1-4.7,2.4-6.5c0.1-0.2,0.3-0.3,0.3-0.5C95.3,51.2,95.1,51.4,94.9,51.6 M94.1,54.9
		c-0.2,0.7-0.5,1.4-0.5,2.2c0.1-0.1,0.1-0.2,0.2-0.4c0.3-1,0.6-1.9,0.9-2.9C94.4,54.1,94.3,54.5,94.1,54.9 M107.6,66.3
		c-0.6,1-1.1,2.1-1.3,3.3c0,0.3-0.1,0.5-0.1,0.8c0.2-0.3,0.3-0.7,0.4-1.1c0.4-1.3,1.1-2.5,1.7-3.8C108,65.7,107.8,66,107.6,66.3
		 M93.3,66.6c0.5,1.4,1.2,2.8,2.2,4c1.2,1.4,2.7,2.7,4.5,3.3c1,0.4,2.1,0.5,3.2,0.2c1.2-0.3,2.2-1.2,2.7-2.4
		c-0.4,0.4-0.7,0.9-1.1,1.2c-1,0.9-2.5,1.2-3.8,0.9c-1.7-0.4-3.2-1.4-4.5-2.7c-1.5-1.6-2.7-3.5-3.4-5.6C93,65.9,93.2,66.2,93.3,66.6
		 M94.6,66.9c0.1,0.4,0.2,0.8,0.4,1.2c0.5,1.2,1.3,2.3,2.3,3.2c1,0.9,2.1,1.7,3.5,2c1.1,0.2,2.3,0.1,3.1-0.8
		c-0.2,0.1-0.5,0.2-0.7,0.4c-1.3,0.5-2.8,0.2-4-0.5c-1.7-1-3-2.5-3.9-4.2C95,67.8,94.9,67.3,94.6,66.9"/>
	<path class="st1" d="M107.4,48c0.3,0.2,0.6,0.4,0.9,0.8c0.1,0.7,0,1.4,0.1,2.2c0.1,0.4,0,0.8,0.1,1.2c0.1-0.3,0.1-0.5,0.1-0.8
		c0-0.8,0.1-1.5,0-2.3c0.4,0.4,0.7,0.7,1.1,1.1c0,1.1-0.1,2.1-0.2,3.2c0.3-0.5,0.3-1.1,0.4-1.6c0-0.5,0-0.9,0.1-1.4
		c0.4,0.5,0.8,1.1,1.1,1.7c-0.1,1-0.2,1.9-0.3,2.9c-1.2-1.3-2.4-2.6-3.5-4.1C107.3,49.9,107.4,49,107.4,48"/>
	<path class="st1" d="M111.1,52.3c0.3,0.4,0.5,0.9,0.7,1.3c0.2,0.3,0,0.6,0,0.9c0,0.5-0.1,1.1-0.1,1.6c0.2-0.6,0.2-1.3,0.3-2
		c0.3,0.7,0.5,1.5,0.7,2.3c-0.1,0.6-0.3,1.2-0.3,1.8c0.2-0.4,0.3-0.9,0.3-1.3c0.3,0.8,0.3,1.8,0.3,2.6c0.1-0.9,0-1.9-0.2-2.8l0.1,0
		c0.2,0.3,0.5,0.6,0.6,1c0,1.2-0.2,2.4-0.2,3.7c-0.4-1-0.8-2-1.1-3c-0.3-0.8-0.4-1.7-0.9-2.5c-0.2-0.4-0.5-0.7-0.8-1
		C111,54.2,111.1,53.3,111.1,52.3"/>
	<path class="st1" d="M112.3,54.5c0.3,0.3,0.5,0.7,0.8,1c0.2,0.2,0.2,0.6,0.3,0.9c0.1,0.4,0.2,0.8,0.1,1.2c-0.3-0.5-0.7-0.9-0.8-1.5
		C112.7,55.5,112.5,55,112.3,54.5"/>
	<path class="st5" d="M68.7,38.1c-0.4,0.4-0.2,1.2-0.7,1.5c-1.4,1-2.9,1.7-4.3,2.6c-1.7-0.5-3.7-0.1-5.2,0.8c-2.1,1.4-3.5,3.7-4,6.2
		c-0.2,1.7-0.2,3.4-0.2,5.1c0.7-0.4,1.5-0.8,2.2-1.1c-1.1,1.6-2.5,3-3.8,4.5c-0.8,1-1.5,2.1-1.9,3.3c-0.5,1.5-0.5,3.1-0.3,4.7
		c0.3,2.5,1.6,5,3.6,6.6c1.7,1.4,3.9,2,6.1,1.9c2.1-0.1,4-1,5.5-2.4c2.4,2.2,5.7,3.3,8.9,3.2c2.3,0,4.7-0.6,6.4-2.2
		c1.5-1.3,2.3-3.3,2.4-5.3c0.2-2.5-0.4-5-1.7-7.2c-1.5-2.5-3.4-4.7-5-7.2c-1-1.5-1.9-3.1-3-4.6c-0.7-1-1.5-2-2.5-2.5
		c-0.5-0.3-1.1-0.2-1.6,0c0-0.5-0.2-1-0.6-1.3c-0.3,0-0.5,0-0.8,0c-0.2-0.2-0.4-0.5-0.7-0.7c0.5-0.9,1.2-1.8,1.8-2.7
		c0.4-0.8,0.7-1.6,0.9-2.4c0.1-0.3-0.1-0.6-0.4-0.7C69.6,38.2,69.2,38,68.7,38.1"/>
	<path class="st1" d="M68.7,38.4c0.5-0.1,1,0.2,1.4,0.5c-0.3,0.7-0.5,1.4-0.7,2.1c-0.1,0.3-0.3,0.4-0.4,0.6
		c-0.6,0.7-1.1,1.5-1.5,2.3c-0.1,0-0.2,0.1-0.2,0.1c0.1-0.3,0.2-0.6,0.3-0.9c-0.3,0.2-0.5,0.5-0.8,0.7c0.4-0.8,1-1.6,1.4-2.4
		c-0.6,0.6-1.1,1.3-1.6,2c-0.1,0.2-0.2,0.2-0.4,0.2c0.6-0.9,1.4-1.7,1.7-2.8c0.4,0.2,0.8,0.4,1.2,0.1c-0.2-0.1-0.5-0.1-0.7-0.1
		c-0.1-0.1-0.2-0.1-0.3-0.2C68.5,39.8,68.7,39.1,68.7,38.4"/>
	<path class="st1" d="M63.9,42.4c1.3-0.7,2.5-1.5,3.8-2.3c0,0.1,0,0.3,0,0.4c-1,0.5-2.1,1-3,1.6c-0.2,0.2-0.4,0.4-0.5,0.6
		C64.1,42.7,64,42.6,63.9,42.4"/>
	<path class="st1" d="M58.9,43.1c1-0.6,2.2-0.8,3.3-0.8c0.5,0,0.9,0.1,1.3,0.2c0,0,0.1,0.1,0.1,0.2c-0.4,0.2-0.8,0.5-1.3,0.8
		c-1,0.2-2.1,0-3.1,0c0.9,0.3,1.8,0.3,2.8,0.3c-0.4,0.3-0.8,0.7-1.1,1c-1.2,0.2-2.4,0.3-3.5,0.5c1.1,0.1,2.1-0.1,3.1-0.2
		c-0.5,0.4-0.9,0.9-1.3,1.4c-1,0.2-2.1,0.4-3.1,0.7c1,0,1.9-0.2,2.8-0.3c-0.5,0.6-1,1.2-1.4,1.9c-0.1,0.2-0.4,0.3-0.6,0.3
		c-0.6,0.2-1.2,0.3-1.8,0.5c0.7,0.1,1.3-0.1,2-0.3c-0.5,0.8-0.9,1.6-1.3,2.5c-0.2,0.5-0.4,0.9-0.5,1.4c0.1-0.1,0.2-0.3,0.2-0.4
		c0.5-1.1,1-2.2,1.7-3.2c0,0.8,0,1.6,0.2,2.4c0.1-1-0.1-1.9,0.2-2.9c0.4-0.7,1-1.4,1.5-2c0,1.2,0,2.4,0.2,3.6c0-0.5,0-1,0-1.5
		c0-0.8,0-1.6,0.1-2.4c0.5-0.6,1-1.1,1.6-1.6c-0.2,1.3-0.2,2.6,0.1,3.8c0.1-0.1,0-0.4,0-0.6c0-1.2,0-2.4,0.2-3.6
		c0.4-0.3,0.8-0.6,1.2-0.9c0,1,0,2,0.3,2.9c0.1-0.1,0-0.4,0-0.6c-0.1-0.8-0.1-1.7,0-2.5c0.3-0.2,0.6-0.5,0.9-0.7
		c0.2,0.6,0.1,1.3,0.1,1.9c-0.4,1.9-1.2,3.8-2.5,5.2c-1.1,1.1-2.5,1.9-4,2.4c-1,0.4-2,0.7-2.8,1.3c0.2-2.3,0.3-4.6,1.2-6.8
		C56.3,45.4,57.3,43.9,58.9,43.1"/>
	<path class="st6" d="M64.3,44c1.3-0.4,2.7,0,3.7,0.9c-0.4,0.2-0.9,0.3-1.2,0.7c0,0.3,0.1,0.5,0.2,0.8c-0.9,0.3-1.7,1.1-2.1,2
		c-0.6,1.4-0.7,2.9-0.8,4.4c-0.2,2.8-0.7,5.5-1.1,8.2c-0.4,3.1-0.3,6.5,1.5,9.2c-0.6,0.4-1.3,0.7-1.9,1.1c0.7-0.1,1.4-0.4,2.1-0.8
		c0,0,0.2,0,0.2,0.1C63.9,71.2,63,71.7,62,72c-0.5,0.1-0.9,0.2-1.4,0.3c1.5,0,2.9-0.4,4.1-1.3c0.1-0.2,0.4,0.1,0.2,0.2
		c-1.4,1-3.1,1.5-4.8,1.6c-0.8,0-1.6-0.2-2.3-0.3c1.8,0.7,3.9,0.7,5.7-0.1c0.7-0.2,1.3-0.7,1.9-1c-1.4,1.3-3.2,2.1-5.1,2.1
		c-2,0-3.9-0.6-5.6-1.7c-2-1.3-3.3-3.4-3.8-5.8c-0.2-1-0.2-2-0.2-3c0.2-1.3,0.6-2.6,1.3-3.7c1.4-2.2,3.5-4,4.9-6.2
		c0.2-0.3,0.5-0.4,0.8-0.5c-0.6,0.8-1.2,1.7-1.7,2.6c0.8-0.9,1.6-1.8,2.3-2.8c0.4-0.2,0.9-0.4,1.3-0.7c-0.8,0.9-1.5,1.8-2.2,2.7
		c1.3-1.3,2.6-2.7,3.9-4C63.2,48.8,64.3,46.4,64.3,44 M62.5,49.4c-1,1.3-2.1,2.5-2.9,3.9c0.3-0.2,0.5-0.4,0.7-0.7
		c1.2-1.3,2.3-2.7,3.3-4.2c0.3-0.4,0.6-0.8,0.7-1.3C63.7,47.8,63.1,48.7,62.5,49.4 M62.6,50.3c-0.3,0.4-0.6,0.9-0.8,1.4
		c0.3-0.2,0.5-0.5,0.7-0.7c0.4-0.6,0.9-1.1,1.1-1.8C63.2,49.4,62.9,49.8,62.6,50.3 M62.2,61.1c-0.2,0.7-0.3,1.4-0.3,2.1
		c0.1,0,0.2,0,0.3,0c-0.1,0-0.2,0-0.3,0c-0.1,1.7,0,3.4,0.6,5c0-0.6-0.2-1.1-0.2-1.7c-0.2-1.7-0.2-3.4,0-5c0.1-0.5,0.2-1,0.2-1.5
		C62.4,60.3,62.3,60.7,62.2,61.1 M51.8,65.8c0.3,2.7,2.2,5.2,4.8,6.1c-0.2-0.1-0.4-0.3-0.6-0.4c-2.3-1.4-3.9-3.9-4.1-6.6
		c0-0.3,0-0.5-0.1-0.8C51.7,64.7,51.8,65.2,51.8,65.8 M53.6,68.6c0.5,0.6,1.1,1.2,1.8,1.4c-0.3-0.4-0.7-0.7-1-1
		c-0.5-0.5-0.9-1.2-1.4-1.8C53,67.7,53.3,68.2,53.6,68.6"/>
	<path d="M67.1,45.7c0.6-0.4,1.3-0.6,2-0.6C68.5,45.5,67.8,45.9,67.1,45.7"/>
	<path d="M67.1,46c0.8,0.1,1.5-0.2,2.1-0.8c0.1,0.3,0.2,0.5,0.2,0.8c-0.6,0.4-1.3,0.6-2,0.6C67.3,46.4,67.2,46.2,67.1,46"/>
	<path class="st7" d="M70.2,46.3c0.5-0.2,1,0.1,1.4,0.4c1.4,1.1,2.3,2.6,3.2,4.1c1.3,2.1,2.7,4.1,4.1,6.1c0.9,1.3,1.9,2.7,2.6,4.2
		c1,1.9,1.6,4,1.6,6.1c-0.1,1.6-0.6,3.2-1.6,4.5c-1,1.4-2.7,2.3-4.4,2.5c-2.3,0.4-4.7-0.4-6.4-2c-1.9-1.7-2.8-4.2-3.4-6.6
		c-0.3-1.5-0.5-3.1-0.6-4.6c0-2.9-0.1-5.8,0-8.7c0-1,0.1-2,0.1-3c0.1-0.7,0.1-1.6,0.7-2c0.4-0.2,0.8-0.1,1.2-0.1
		C69.3,47,69.7,46.5,70.2,46.3 M71.5,52c-0.4,0.1-0.8,0.4-0.9,0.8c-0.5,1-0.6,2.2-0.7,3.3c-0.1,1.3-0.2,2.6-0.2,3.9
		c0,2.1,0.4,4.3,1.5,6.2c0.8,1.4,2.1,2.7,3.6,3.3c1.4,0.6,3,0.6,4.3-0.1c1.1-0.6,1.8-1.7,2.1-2.9c0.5-2.1,0.2-4.3-0.6-6.2
		c-0.8-1.9-2.2-3.5-3.6-4.8c-1.2-1.1-2.2-2.3-3.6-3.1C72.8,52.1,72.1,51.8,71.5,52 M70.8,66.3c0.6,2.1,2.5,3.8,4.7,4.2
		c1,0.2,2.2,0.2,3.1-0.3c-0.8,0.1-1.7,0.2-2.6,0.1c-1.7-0.2-3.3-1.2-4.3-2.6C71.3,67.3,71.1,66.8,70.8,66.3"/>
	<path class="st6" d="M65.6,48.1c0.4-0.5,0.8-0.9,1.4-1.1c-0.2,0.3-0.5,0.5-0.7,0.8c0.4-0.2,0.7-0.5,1.1-0.7
		c-0.7,0.6-0.9,1.6-0.9,2.4c0,1.3,0,2.6,0.1,3.9c0,2.5-0.2,5-0.1,7.6c0.1,2.6,0.4,5.2,1.3,7.6c0.7,1.9,2,3.7,3.8,4.8
		c0.6,0.4,1.3,0.7,2,0.9c-2.6-0.2-5.3-1-7.3-2.9C64.6,70,63.7,68,63.3,66c-0.3-1.3-0.2-2.7-0.2-4c0.4-2.4,1.1-4.8,1.2-7.3
		c0.1-1.2,0.1-2.4,0.2-3.6c0.1-1.3,0.5-2.7,1.5-3.6C65.8,47.6,65.7,47.8,65.6,48.1 M65.8,52.7c0,1.1-0.1,2.2,0,3.2
		c0.2-0.9,0.3-1.8,0.3-2.6c0-1.2,0.1-2.3-0.2-3.5C65.9,50.7,65.9,51.7,65.8,52.7 M65.4,50.9c-0.2,1-0.3,2.1-0.3,3.2
		c0.3-0.5,0.3-1.2,0.4-1.7C65.5,51.8,65.6,51.3,65.4,50.9 M66,60.2c-0.1,0.7-0.1,1.5-0.1,2.3l0,0.1c0,2.5,0.2,5.1,1.5,7.3
		c0.8,1.5,2.1,2.9,3.8,3.5c-0.4-0.3-0.9-0.6-1.3-0.9C68,71,67,68.9,66.5,66.7c-0.3-1.2-0.4-2.4-0.5-3.7C66,62.1,66,61.1,66,60.2
		 M65.5,67.9c0.6,2,1.8,3.9,3.6,5c-0.5-0.5-1.1-1-1.5-1.6c-1.7-2.1-2.4-4.8-2.2-7.4C65,65.1,65.2,66.6,65.5,67.9 M64.6,66.9
		c-0.1,0.6,0,1.1,0.2,1.7c0.3,1,1,1.9,1.9,2.4c-0.2-0.3-0.5-0.6-0.7-1C65.3,69.1,65,68,64.6,66.9"/>
	<g>
		<path class="st8" d="M71.3,52.1c0.6-0.2,1.1,0.1,1.6,0.3c1.4,0.8,2.6,1.8,3.8,2.9c1.9,1.8,3.5,3.9,4.4,6.3
			c0.4,0.7,0.4,1.5,0.6,2.3c0.1,1.5,0,3.2-0.9,4.5c-0.7,1-1.9,1.6-3.2,1.6c-1.5,0.1-3.1-0.4-4.2-1.4c-1.9-1.5-2.9-3.8-3.4-6.1
			c-0.3-1.7-0.2-3.4-0.1-5.1c0.1-1.4,0.3-2.7,0.6-4.1C70.6,52.9,70.7,52.3,71.3,52.1 M70.6,56.4c-0.4,2.3-0.4,4.6,0,6.8
			c0.4,1.9,1.2,3.9,2.8,5.1c1.1,0.9,2.5,1.3,4,1.4c1,0,2.2-0.3,2.8-1.2c-0.6,0.6-1.4,0.9-2.3,1c-1.8,0-3.6-0.7-4.8-2
			c-1.6-1.8-2.2-4.3-2.4-6.6C70.5,59.5,70.7,57.9,70.6,56.4 M71.5,61.8c-0.1,1.1,0.1,2.3,0.4,3.4c0.8,2.5,3.5,4.3,6.2,4
			c-1.9-0.2-3.7-1-4.9-2.4c-0.8-1-1.2-2.2-1.4-3.4C71.7,62.9,71.7,62.3,71.5,61.8 M72.8,64.6c0.1,0.9,0.7,1.8,1.4,2.4
			c0.7,0.6,1.7,1.1,2.6,1c-1.1-0.4-2.1-0.9-2.9-1.8C73.5,65.8,73.2,65.2,72.8,64.6"/>
	</g>
	<path class="st0" d="M18.8,106.2c-7.7,0-13.5-5.4-13.5-13.2c0-8,5.9-13.2,13.6-13.2c3.5,0,7.3,1.3,9.4,3.7l-4.1,4.1
		c-1.1-1.6-3.2-2.3-5.1-2.3c-4.2,0-7.2,3.3-7.2,7.7c0,4.6,2.9,7.7,7.1,7.7c2.4,0,4.2-1.1,5.3-2.5l4.2,4
		C26.4,104.6,23,106.2,18.8,106.2"/>
	<path class="st0" d="M45.6,105.5l-1.9-4.9h-9.7l-1.8,4.9h-6.6L36,80.4h5.9l10.4,25.1H45.6z M38.9,87.1l-3.2,8.6H42L38.9,87.1z"/>
	<polygon class="st0" points="52.3,105.5 52.3,80.4 58.4,80.4 58.4,100.2 68,100.2 68,105.5 	"/>
	<rect x="68.8" y="80.4" class="st0" width="6.1" height="25.1"/>
	<polygon class="st0" points="83.9,85.6 83.9,90.8 93.6,90.8 93.6,95.8 83.9,95.8 83.9,105.5 77.9,105.5 77.9,80.4 94.4,80.4 
		94.4,85.6 	"/>
	<path class="st0" d="M109.6,105.5l-5.4-9.9h-2.1v9.9h-5.9V80.4h9.6c4.8,0,9.6,1.8,9.6,7.6c0,3.4-2,5.8-5.2,6.8l6.5,10.7H109.6z
		 M105.3,85.3h-3.2v5.8h2.9c1.9,0,4.4-0.5,4.4-3C109.3,85.8,107.1,85.3,105.3,85.3"/>
	<path class="st0" d="M127.9,106.2c-6.6,0-10.7-4.1-10.7-10.1V80.4h6v15.1c0,2.7,1.3,5.2,4.7,5.2c3.4,0,4.7-2.5,4.7-5.2V80.4h6.1V96
		C138.7,102.1,134.5,106.2,127.9,106.2"/>
	<path class="st0" d="M150.5,96h-3v9.4h-6.1V80.4h9.2c5.5,0,9.8,2,9.8,7.7C160.5,94,155.8,96,150.5,96 M150.2,85.3h-2.7v5.9h2.5
		c2.3,0,4.4-0.7,4.4-3C154.4,85.8,152.3,85.3,150.2,85.3"/>
</g>
</svg>
