<svg id="Layer_1" data-name="Layer 1" xmlns="http://www.w3.org/2000/svg" viewBox="0 0 257.17 255.45"><defs><style>.cls-1{fill:#fc0;}</style></defs><title>stars</title><g id="s"><g id="c"><path id="t" class="cls-1" d="M142.91,19.42,137.19,37l8.8,2.86Z" transform="translate(-14.32 -19.42)"/><path class="cls-1" d="M142.91,19.42,148.63,37l-8.8,2.86Z" transform="translate(-14.32 -19.42)"/></g><g id="a"><path class="cls-1" d="M160.5,32.21H142v9.25Z" transform="translate(-14.32 -19.42)"/><path class="cls-1" d="M160.5,32.21l-15,10.87L140.1,35.6Z" transform="translate(-14.32 -19.42)"/><path class="cls-1" d="M153.78,52.89,148.07,35.3l-8.8,2.85Z" transform="translate(-14.32 -19.42)"/><path class="cls-1" d="M153.78,52.89,138.82,42l5.43-7.49Z" transform="translate(-14.32 -19.42)"/></g><path class="cls-1" d="M125.32,32.21h18.5v9.25Z" transform="translate(-14.32 -19.42)"/><path class="cls-1" d="M125.32,32.21l15,10.87,5.44-7.48Z" transform="translate(-14.32 -19.42)"/><path class="cls-1" d="M132,52.89l5.71-17.59,8.8,2.85Z" transform="translate(-14.32 -19.42)"/><path class="cls-1" d="M132,52.89,147,42l-5.43-7.49Z" transform="translate(-14.32 -19.42)"/></g><path class="cls-1" d="M142.91,241.41,137.19,259l8.8,2.86Z" transform="translate(-14.32 -19.42)"/><path class="cls-1" d="M142.91,241.41,148.63,259l-8.8,2.86Z" transform="translate(-14.32 -19.42)"/><path class="cls-1" d="M160.5,254.19H142v9.25Z" transform="translate(-14.32 -19.42)"/><path class="cls-1" d="M160.5,254.19l-15,10.88-5.44-7.49Z" transform="translate(-14.32 -19.42)"/><path class="cls-1" d="M153.78,274.87l-5.71-17.59-8.8,2.86Z" transform="translate(-14.32 -19.42)"/><path class="cls-1" d="M153.78,274.87l-15-10.87,5.43-7.48Z" transform="translate(-14.32 -19.42)"/><path class="cls-1" d="M125.32,254.19h18.5v9.25Z" transform="translate(-14.32 -19.42)"/><path class="cls-1" d="M125.32,254.19l15,10.88,5.44-7.49Z" transform="translate(-14.32 -19.42)"/><path class="cls-1" d="M132,274.87l5.71-17.59,8.8,2.86Z" transform="translate(-14.32 -19.42)"/><path class="cls-1" d="M132,274.87,147,264l-5.43-7.48Z" transform="translate(-14.32 -19.42)"/><g id="l"><path class="cls-1" d="M31.92,130.42,26.2,148l8.8,2.86Z" transform="translate(-14.32 -19.42)"/><path class="cls-1" d="M31.92,130.42,37.63,148l-8.79,2.86Z" transform="translate(-14.32 -19.42)"/><path class="cls-1" d="M49.51,143.2H31v9.25Z" transform="translate(-14.32 -19.42)"/><path class="cls-1" d="M49.51,143.2l-15,10.87-5.44-7.48Z" transform="translate(-14.32 -19.42)"/><path class="cls-1" d="M42.79,163.88l-5.72-17.59-8.79,2.86Z" transform="translate(-14.32 -19.42)"/><path class="cls-1" d="M42.79,163.88,27.83,153l5.43-7.48Z" transform="translate(-14.32 -19.42)"/><path class="cls-1" d="M14.32,143.2h18.5v9.25Z" transform="translate(-14.32 -19.42)"/><path class="cls-1" d="M14.32,143.2l15,10.87,5.44-7.48Z" transform="translate(-14.32 -19.42)"/><path class="cls-1" d="M21,163.88l5.72-17.59,8.8,2.86Z" transform="translate(-14.32 -19.42)"/><path class="cls-1" d="M21,163.88,36,153l-5.44-7.48Z" transform="translate(-14.32 -19.42)"/><path class="cls-1" d="M76.54,67.76l15-10.87L86.07,49.4Z" transform="translate(-14.32 -19.42)"/><path class="cls-1" d="M76.54,67.76l5.72-17.59L91.05,53Z" transform="translate(-14.32 -19.42)"/><path class="cls-1" d="M69.82,47.08,84.79,58l5.43-7.48Z" transform="translate(-14.32 -19.42)"/><path class="cls-1" d="M69.82,47.08h18.5v9.25Z" transform="translate(-14.32 -19.42)"/><path class="cls-1" d="M87.41,34.29,81.7,51.89l8.79,2.86Z" transform="translate(-14.32 -19.42)"/><path class="cls-1" d="M87.41,34.29l5.72,17.6-8.8,2.86Z" transform="translate(-14.32 -19.42)"/><path class="cls-1" d="M98.29,67.76l-15-10.87,5.44-7.49Z" transform="translate(-14.32 -19.42)"/><path class="cls-1" d="M98.29,67.76,92.57,50.17,83.77,53Z" transform="translate(-14.32 -19.42)"/><path class="cls-1" d="M105,47.08,90,58l-5.43-7.48Z" transform="translate(-14.32 -19.42)"/><path class="cls-1" d="M105,47.08H86.51v9.25Z" transform="translate(-14.32 -19.42)"/><path class="cls-1" d="M57.66,108.39l-5.72-17.6-8.79,2.86Z" transform="translate(-14.32 -19.42)"/><path class="cls-1" d="M57.66,108.39l-15-10.88L48.13,90Z" transform="translate(-14.32 -19.42)"/><path class="cls-1" d="M35.91,108.39l15-10.88L45.44,90Z" transform="translate(-14.32 -19.42)"/><path class="cls-1" d="M35.91,108.39l5.72-17.6,8.8,2.86Z" transform="translate(-14.32 -19.42)"/><path class="cls-1" d="M29.19,87.7l15,10.88,5.44-7.49Z" transform="translate(-14.32 -19.42)"/><path class="cls-1" d="M29.19,87.7h18.5V97Z" transform="translate(-14.32 -19.42)"/><path class="cls-1" d="M64.38,87.7l-15,10.88L44,91.09Z" transform="translate(-14.32 -19.42)"/><path class="cls-1" d="M64.38,87.7H45.88V97Z" transform="translate(-14.32 -19.42)"/><path class="cls-1" d="M46.79,74.92,52.5,92.51l-8.79,2.86Z" transform="translate(-14.32 -19.42)"/><path class="cls-1" d="M46.79,74.92,41.07,92.51l8.8,2.86Z" transform="translate(-14.32 -19.42)"/><path class="cls-1" d="M64.38,198.7H45.88V208Z" transform="translate(-14.32 -19.42)"/><path class="cls-1" d="M64.38,198.7l-15,10.87L44,202.09Z" transform="translate(-14.32 -19.42)"/><path class="cls-1" d="M57.66,219.38l-5.72-17.6-8.79,2.86Z" transform="translate(-14.32 -19.42)"/><path class="cls-1" d="M57.66,219.38l-15-10.88L48.13,201Z" transform="translate(-14.32 -19.42)"/><path class="cls-1" d="M35.91,219.38l15-10.88L45.44,201Z" transform="translate(-14.32 -19.42)"/><path class="cls-1" d="M35.91,219.38l5.72-17.6,8.8,2.86Z" transform="translate(-14.32 -19.42)"/><path class="cls-1" d="M46.79,185.91l5.71,17.6-8.79,2.85Z" transform="translate(-14.32 -19.42)"/><path class="cls-1" d="M46.79,185.91l-5.72,17.6,8.8,2.85Z" transform="translate(-14.32 -19.42)"/><path class="cls-1" d="M29.19,198.7h18.5V208Z" transform="translate(-14.32 -19.42)"/><path class="cls-1" d="M29.19,198.7l15,10.87,5.44-7.48Z" transform="translate(-14.32 -19.42)"/><path class="cls-1" d="M105,239.32H86.51v9.25Z" transform="translate(-14.32 -19.42)"/><path class="cls-1" d="M105,239.32,90,250.2l-5.43-7.49Z" transform="translate(-14.32 -19.42)"/><path class="cls-1" d="M98.29,260l-5.72-17.59-8.8,2.86Z" transform="translate(-14.32 -19.42)"/><path class="cls-1" d="M98.29,260l-15-10.87,5.44-7.48Z" transform="translate(-14.32 -19.42)"/><path class="cls-1" d="M76.54,260l15-10.87-5.44-7.48Z" transform="translate(-14.32 -19.42)"/><path class="cls-1" d="M76.54,260l5.72-17.59,8.79,2.86Z" transform="translate(-14.32 -19.42)"/><path class="cls-1" d="M87.41,226.54l5.72,17.59L84.33,247Z" transform="translate(-14.32 -19.42)"/><path class="cls-1" d="M87.41,226.54,81.7,244.13,90.49,247Z" transform="translate(-14.32 -19.42)"/><path class="cls-1" d="M69.82,239.32h18.5v9.25Z" transform="translate(-14.32 -19.42)"/><path class="cls-1" d="M69.82,239.32l15,10.88,5.43-7.49Z" transform="translate(-14.32 -19.42)"/></g><path class="cls-1" d="M253.9,130.42,259.62,148l-8.8,2.86Z" transform="translate(-14.32 -19.42)"/><path class="cls-1" d="M253.9,130.42,248.19,148l8.79,2.86Z" transform="translate(-14.32 -19.42)"/><path class="cls-1" d="M236.31,143.2h18.5v9.25Z" transform="translate(-14.32 -19.42)"/><path class="cls-1" d="M236.31,143.2l15,10.87,5.43-7.48Z" transform="translate(-14.32 -19.42)"/><path class="cls-1" d="M243,163.88l5.72-17.59,8.79,2.86Z" transform="translate(-14.32 -19.42)"/><path class="cls-1" d="M243,163.88,258,153l-5.44-7.48Z" transform="translate(-14.32 -19.42)"/><path class="cls-1" d="M271.5,143.2H253v9.25Z" transform="translate(-14.32 -19.42)"/><path class="cls-1" d="M271.5,143.2l-15,10.87-5.44-7.48Z" transform="translate(-14.32 -19.42)"/><path class="cls-1" d="M264.78,163.88l-5.72-17.59-8.8,2.86Z" transform="translate(-14.32 -19.42)"/><path class="cls-1" d="M264.78,163.88l-15-10.87,5.44-7.48Z" transform="translate(-14.32 -19.42)"/><path class="cls-1" d="M209.28,67.76l-15-10.87,5.44-7.49Z" transform="translate(-14.32 -19.42)"/><path class="cls-1" d="M209.28,67.76l-5.72-17.59L194.77,53Z" transform="translate(-14.32 -19.42)"/><path class="cls-1" d="M216,47.08,201,58l-5.43-7.48Z" transform="translate(-14.32 -19.42)"/><path class="cls-1" d="M216,47.08H197.5v9.25Z" transform="translate(-14.32 -19.42)"/><path class="cls-1" d="M198.41,34.29l5.71,17.6-8.79,2.86Z" transform="translate(-14.32 -19.42)"/><path class="cls-1" d="M198.41,34.29l-5.72,17.6,8.8,2.86Z" transform="translate(-14.32 -19.42)"/><path class="cls-1" d="M187.53,67.76l15-10.87-5.44-7.49Z" transform="translate(-14.32 -19.42)"/><path class="cls-1" d="M187.53,67.76l5.72-17.59,8.8,2.85Z" transform="translate(-14.32 -19.42)"/><path class="cls-1" d="M180.81,47.08l15,10.87,5.44-7.48Z" transform="translate(-14.32 -19.42)"/><path class="cls-1" d="M180.81,47.08h18.5v9.25Z" transform="translate(-14.32 -19.42)"/><path class="cls-1" d="M228.16,108.39l5.72-17.6,8.79,2.86Z" transform="translate(-14.32 -19.42)"/><path class="cls-1" d="M228.16,108.39l15-10.88L237.69,90Z" transform="translate(-14.32 -19.42)"/><path class="cls-1" d="M249.91,108.39l-15-10.88L240.38,90Z" transform="translate(-14.32 -19.42)"/><path class="cls-1" d="M249.91,108.39l-5.72-17.6-8.8,2.86Z" transform="translate(-14.32 -19.42)"/><path class="cls-1" d="M256.63,87.7l-15,10.88-5.44-7.49Z" transform="translate(-14.32 -19.42)"/><path class="cls-1" d="M256.63,87.7h-18.5V97Z" transform="translate(-14.32 -19.42)"/><path class="cls-1" d="M221.44,87.7l15,10.88,5.43-7.49Z" transform="translate(-14.32 -19.42)"/><path class="cls-1" d="M221.44,87.7h18.5V97Z" transform="translate(-14.32 -19.42)"/><path class="cls-1" d="M239,74.92l-5.71,17.59,8.79,2.86Z" transform="translate(-14.32 -19.42)"/><path class="cls-1" d="M239,74.92l5.72,17.59L236,95.37Z" transform="translate(-14.32 -19.42)"/><path class="cls-1" d="M221.44,198.7h18.5V208Z" transform="translate(-14.32 -19.42)"/><path class="cls-1" d="M221.44,198.7l15,10.87,5.43-7.48Z" transform="translate(-14.32 -19.42)"/><path class="cls-1" d="M228.16,219.38l5.72-17.6,8.79,2.86Z" transform="translate(-14.32 -19.42)"/><path class="cls-1" d="M228.16,219.38l15-10.88L237.69,201Z" transform="translate(-14.32 -19.42)"/><path class="cls-1" d="M249.91,219.38l-15-10.88,5.44-7.48Z" transform="translate(-14.32 -19.42)"/><path class="cls-1" d="M249.91,219.38l-5.72-17.6-8.8,2.86Z" transform="translate(-14.32 -19.42)"/><path class="cls-1" d="M239,185.91l-5.71,17.6,8.79,2.85Z" transform="translate(-14.32 -19.42)"/><path class="cls-1" d="M239,185.91l5.72,17.6-8.8,2.85Z" transform="translate(-14.32 -19.42)"/><path class="cls-1" d="M256.63,198.7h-18.5V208Z" transform="translate(-14.32 -19.42)"/><path class="cls-1" d="M256.63,198.7l-15,10.87-5.44-7.48Z" transform="translate(-14.32 -19.42)"/><path class="cls-1" d="M180.81,239.32h18.5v9.25Z" transform="translate(-14.32 -19.42)"/><path class="cls-1" d="M180.81,239.32l15,10.88,5.44-7.49Z" transform="translate(-14.32 -19.42)"/><path class="cls-1" d="M187.53,260l5.72-17.59,8.8,2.86Z" transform="translate(-14.32 -19.42)"/><path class="cls-1" d="M187.53,260l15-10.87-5.44-7.48Z" transform="translate(-14.32 -19.42)"/><path class="cls-1" d="M209.28,260l-15-10.87,5.44-7.48Z" transform="translate(-14.32 -19.42)"/><path class="cls-1" d="M209.28,260l-5.72-17.59-8.79,2.86Z" transform="translate(-14.32 -19.42)"/><path class="cls-1" d="M198.41,226.54l-5.72,17.59,8.8,2.86Z" transform="translate(-14.32 -19.42)"/><path class="cls-1" d="M198.41,226.54l5.71,17.59L195.33,247Z" transform="translate(-14.32 -19.42)"/><path class="cls-1" d="M216,239.32H197.5v9.25Z" transform="translate(-14.32 -19.42)"/><path class="cls-1" d="M216,239.32,201,250.2l-5.43-7.49Z" transform="translate(-14.32 -19.42)"/></svg>